<?xml version="1.0" encoding="UTF-8" standalone="no"?>
<svg
   width="256px"
   height="256px"
   viewBox="0 0 256 256"
   version="1.1"
   id="svg1"
   sodipodi:docname="no-ads.svg"
   inkscape:version="1.4 (86a8ad7, 2024-10-11)"
   xmlns:inkscape="http://www.inkscape.org/namespaces/inkscape"
   xmlns:sodipodi="http://sodipodi.sourceforge.net/DTD/sodipodi-0.dtd"
   xmlns="http://www.w3.org/2000/svg"
   xmlns:svg="http://www.w3.org/2000/svg"
   xmlns:rdf="http://www.w3.org/1999/02/22-rdf-syntax-ns#"
   xmlns:cc="http://creativecommons.org/ns#"
   xmlns:dc="http://purl.org/dc/elements/1.1/">
  <sodipodi:namedview
     id="namedview1"
     pagecolor="#ffffff"
     bordercolor="#666666"
     borderopacity="1.0"
     inkscape:showpageshadow="2"
     inkscape:pageopacity="0.0"
     inkscape:pagecheckerboard="0"
     inkscape:deskcolor="#d1d1d1"
     inkscape:zoom="4.5117188"
     inkscape:cx="128"
     inkscape:cy="128"
     inkscape:window-width="1720"
     inkscape:window-height="1373"
     inkscape:window-x="1711"
     inkscape:window-y="-9"
     inkscape:window-maximized="0"
     inkscape:current-layer="Page-1" />
  <!-- Generator: Sketch 43.2 (39069) - http://www.bohemiancoding.com/sketch -->
  <title
     id="title1">Artboard Copy</title>
  <desc
     id="desc1">Created with Sketch.</desc>
  <defs
     id="defs1" />
  <g
     id="Page-1"
     stroke="none"
     stroke-width="1"
     fill="none"
     fill-rule="evenodd">
    <g
       id="Artboard-Copy"
       fill="#2B8300"
       style="fill:#3ab100;fill-opacity:1">
      <path
         d="M103.081,48.396 C103.761003,47.1719939 104.746994,46.356002 106.039,45.948 C107.331006,45.539998 108.94599,45.336 110.884,45.336 C112.82201,45.336 114.385994,45.5059983 115.576,45.846 C116.766006,46.1860017 117.649997,46.5939976 118.228,47.07 C118.806003,47.5460024 119.230999,48.2599952 119.503,49.212 C119.911002,50.3000054 120.115,52.0339881 120.115,54.414 L120.115,111.024 C120.115,112.656008 120.064001,113.845996 119.962,114.594 C119.859999,115.342004 119.537003,116.225995 118.993,117.246 C118.040995,119.082009 115.389022,120 111.037,120 C108.384987,120 106.549005,119.796002 105.529,119.388 C104.508995,118.979998 103.659003,118.334004 102.979,117.45 C87.6789235,97.049898 77.6150241,83.7220313 72.787,77.466 L72.787,111.024 C72.787,112.656008 72.7360005,113.845996 72.634,114.594 C72.5319995,115.342004 72.2090027,116.225995 71.665,117.246 C70.7129952,119.082009 68.0610218,120 63.709,120 C59.4929789,120 56.9090048,119.082009 55.957,117.246 C55.4129973,116.225995 55.0900005,115.308004 54.988,114.492 C54.8859995,113.675996 54.835,112.486008 54.835,110.922 L54.835,54.006 C54.835,51.4219871 55.1579968,49.5350059 55.804,48.345 C56.4500032,47.154994 57.4189935,46.356002 58.711,45.948 C60.0030065,45.539998 61.6689898,45.336 63.709,45.336 C65.7490102,45.336 67.3639941,45.5229981 68.554,45.897 C69.744006,46.2710019 70.5769976,46.6959976 71.053,47.172 C71.3250014,47.376001 72.1069935,48.2599922 73.399,49.824 C87.7470717,69.3400976 97.3349759,82.2259687 102.163,88.482 L102.163,54.006 C102.163,51.4219871 102.468997,49.5520058 103.081,48.396 Z M163.363,44.316 C173.42705,44.316 182.164963,47.9539636 189.577,55.23 C196.989037,62.5060364 200.695,71.5329461 200.695,82.311 C200.695,93.0890539 197.159035,102.268962 190.087,109.851 C183.014965,117.433038 174.311052,121.224 163.975,121.224 C153.638948,121.224 144.850036,117.484037 137.608,110.004 C130.365964,102.523963 126.745,93.6160517 126.745,83.28 C126.745,77.6359718 127.76499,72.3490246 129.805,67.419 C131.84501,62.4889753 134.564983,58.3580167 137.965,55.026 C141.365017,51.6939833 145.274978,49.0760095 149.695,47.172 C154.115022,45.2679905 158.670977,44.316 163.363,44.316 Z M144.799,82.77 C144.799,88.8220303 146.75398,93.7349811 150.664,97.509 C154.57402,101.283019 158.942976,103.17 163.771,103.17 C168.599024,103.17 172.950981,101.334018 176.827,97.662 C180.703019,93.9899816 182.641,89.0600309 182.641,82.872 C182.641,76.6839691 180.68602,71.7200187 176.776,67.98 C172.86598,64.2399813 168.497024,62.37 163.669,62.37 C158.840976,62.37 154.489019,64.2569811 150.613,68.031 C146.736981,71.8050189 144.799,76.7179697 144.799,82.77 Z M72.565,138.538 L100.105,195.454 C101.261006,197.766012 101.839,199.499994 101.839,200.656 C101.839,203.104012 99.8670197,205.31399 95.923,207.286 C93.6109884,208.442006 91.7920066,209.02 90.466,209.02 C89.1399934,209.02 88.0520043,208.714003 87.202,208.102 C86.3519958,207.489997 85.7400019,206.844003 85.366,206.164 C84.9919981,205.483997 84.4650034,204.464007 83.785,203.104 L78.481,192.088 L50.227,192.088 L44.923,203.104 C44.2429966,204.464007 43.7160019,205.449997 43.342,206.062 C42.9679981,206.674003 42.3560043,207.302997 41.506,207.949 C40.6559958,208.595003 39.5680066,208.918 38.242,208.918 C36.9159934,208.918 35.0970116,208.340006 32.785,207.184 C28.8409803,205.27999 26.869,203.104012 26.869,200.656 C26.869,199.499994 27.4469942,197.766012 28.603,195.454 L56.143,138.436 C56.8910037,136.871992 58.0299924,135.614005 59.56,134.662 C61.0900077,133.709995 62.7049915,133.234 64.405,133.234 C68.0770184,133.234 70.7969912,135.001982 72.565,138.538 Z M64.303,163.018 L57.571,176.992 L71.137,176.992 L64.303,163.018 Z M115.627,133.132 L134.497,133.234 C144.357049,133.234 153.026963,136.786964 160.507,143.893 C167.987037,150.999036 171.727,159.736948 171.727,170.107 C171.727,180.477052 168.072037,189.367963 160.762,196.78 C153.451963,204.192037 144.595052,207.898 134.191,207.898 L115.525,207.898 C111.376979,207.898 108.793005,207.048009 107.773,205.348 C106.956996,203.919993 106.549,201.744015 106.549,198.82 L106.549,142.108 C106.549,140.475992 106.599999,139.286004 106.702,138.538 C106.804001,137.789996 107.126997,136.906005 107.671,135.886 C108.623005,134.049991 111.274978,133.132 115.627,133.132 Z M134.497,189.844 C139.393024,189.844 143.81298,188.025018 147.757,184.387 C151.70102,180.748982 153.673,176.176028 153.673,170.668 C153.673,165.159972 151.752019,160.553019 147.91,156.847 C144.067981,153.140981 139.563026,151.288 134.395,151.288 L124.603,151.288 L124.603,189.844 L134.497,189.844 Z M174.397,197.494 C172.628991,195.317989 171.745,193.363009 171.745,191.629 C171.745,189.894991 173.206985,187.600014 176.131,184.744 C177.831009,183.111992 179.63299,182.296 181.537,182.296 C183.44101,182.296 186.092983,183.995983 189.493,187.396 C190.445005,188.552006 191.804991,189.656995 193.573,190.711 C195.341009,191.765005 196.972993,192.292 198.469,192.292 C204.793032,192.292 207.955,189.708026 207.955,184.54 C207.955,182.975992 207.088009,181.667005 205.354,180.613 C203.619991,179.558995 201.461013,178.794002 198.877,178.318 C196.292987,177.841998 193.505015,177.077005 190.513,176.023 C187.520985,174.968995 184.733013,173.728007 182.149,172.3 C179.564987,170.871993 177.406009,168.611015 175.672,165.517 C173.937991,162.422985 173.071,158.700022 173.071,154.348 C173.071,148.36397 175.297978,143.145022 179.752,138.691 C184.206022,134.236978 190.274962,132.01 197.959,132.01 C202.03902,132.01 205.761983,132.536995 209.128,133.591 C212.494017,134.645005 214.822994,135.715995 216.115,136.804 L218.665,138.742 C220.773011,140.71401 221.827,142.379993 221.827,143.74 C221.827,145.100007 221.011008,146.969988 219.379,149.35 C217.066988,152.750017 214.687012,154.45 212.239,154.45 C210.810993,154.45 209.043011,153.770007 206.935,152.41 C206.730999,152.273999 206.340003,151.934003 205.762,151.39 C205.183997,150.845997 204.657002,150.404002 204.181,150.064 C202.752993,149.179996 200.934011,148.738 198.724,148.738 C196.513989,148.738 194.678007,149.264995 193.216,150.319 C191.753993,151.373005 191.023,152.834991 191.023,154.705 C191.023,156.575009 191.889991,158.087994 193.624,159.244 C195.358009,160.400006 197.516987,161.181998 200.101,161.59 C202.685013,161.998002 205.506985,162.626996 208.567,163.477 C211.627015,164.327004 214.448987,165.363994 217.033,166.588 C219.617013,167.812006 221.775991,169.936985 223.51,172.963 C225.244009,175.989015 226.111,179.711978 226.111,184.132 C226.111,188.552022 225.227009,192.444983 223.459,195.811 C221.690991,199.177017 219.379014,201.777991 216.523,203.614 C211.014972,207.218018 205.133031,209.02 198.877,209.02 C195.680984,209.02 192.655014,208.629004 189.799,207.847 C186.942986,207.064996 184.631009,206.096006 182.863,204.94 C179.258982,202.763989 176.743007,200.65601 175.315,198.616 L174.397,197.494 Z"
         id="NO-ADS"
         style="fill:#3ab100;fill-opacity:1" />
      <path
         d="M147.889087,106.392174 L188.392174,65.8890873 C190.540057,63.7412037 190.540057,60.2587963 188.392174,58.1109127 C186.24429,55.9630291 182.761883,55.9630291 180.613999,58.1109127 L140.110913,98.613999 C137.963029,100.761883 137.963029,104.24429 140.110913,106.392174 C142.258796,108.540057 145.741204,108.540057 147.889087,106.392174 Z"
         id="Path"
         fill-rule="nonzero"
         style="fill:#3ab100;fill-opacity:1" />
    </g>
  </g>
  <metadata
     id="metadata1">
    <rdf:RDF>
      <cc:Work
         rdf:about="">
        <dc:title>Artboard Copy</dc:title>
      </cc:Work>
    </rdf:RDF>
  </metadata>
</svg>
